<svg width="32" height="32" viewBox="0 0 32 32" fill="none" xmlns="http://www.w3.org/2000/svg">
  <rect width="32" height="32" rx="8" fill="url(#bg)"/>
  <path d="M16 5C16 5 9.5 13.5 9.5 17.5C9.5 21.09 12.41 24 16 24C19.59 24 22.5 21.09 22.5 17.5C22.5 13.5 16 5 16 5Z" fill="white" opacity="0.95"/>
  <path d="M12 18.5C12.5 17.8 13.3 17.5 14 17.5C14.7 17.5 15.3 18 16 18C16.7 18 17.3 17.5 18 17.5C18.7 17.5 19.5 17.8 20 18.5" stroke="#3b82f6" stroke-width="1.5" stroke-linecap="round"/>
  <path d="M13 21C13.5 20.3 14 20 14.7 20C15.4 20 15.8 20.5 16.5 20.5C17.2 20.5 17.6 20 18.3 20C19 20 19.5 20.3 20 21" stroke="#3b82f6" stroke-width="1.2" stroke-linecap="round"/>
  <defs>
    <linearGradient id="bg" x1="0" y1="0" x2="32" y2="32">
      <stop stop-color="#2563eb"/>
      <stop offset="1" stop-color="#4f46e5"/>
    </linearGradient>
  </defs>
</svg>
