<svg width="32" height="32" viewBox="0 0 32 32" fill="none" xmlns="http://www.w3.org/2000/svg">
  <rect width="32" height="32" rx="8" fill="url(#bg)"/>
  <!-- Shield outline -->
  <path d="M16 4.5L7 8.5V15C7 20.5 10.8 25.4 16 27C21.2 25.4 25 20.5 25 15V8.5L16 4.5Z" fill="white" fill-opacity="0.15" stroke="white" stroke-width="1" stroke-opacity="0.3"/>
  <!-- Water drop inside shield -->
  <path d="M16 10C16 10 12 15 12 17.5C12 19.7 13.8 21.5 16 21.5C18.2 21.5 20 19.7 20 17.5C20 15 16 10 16 10Z" fill="white" opacity="0.95"/>
  <!-- Wave -->
  <path d="M13.5 18C14 17.4 14.5 17.2 15.2 17.2C15.9 17.2 16.1 17.7 16.8 17.7C17.5 17.7 17.7 17.2 18.4 17.2" stroke="white" stroke-width="1.2" stroke-linecap="round"/>
  <defs>
    <linearGradient id="bg" x1="0" y1="0" x2="32" y2="32">
      <stop stop-color="#2563eb"/>
      <stop offset="1" stop-color="#4338ca"/>
    </linearGradient>
  </defs>
</svg>
